<?xml version="1.0" standalone="no"?>
<!DOCTYPE svg PUBLIC "-//W3C//DTD SVG 20010904//EN"
 "http://www.w3.org/TR/2001/REC-SVG-20010904/DTD/svg10.dtd">
<svg version="1.0" xmlns="http://www.w3.org/2000/svg"
 width="1018.000000pt" height="1018.000000pt" viewBox="0 0 1018.000000 1018.000000"
 preserveAspectRatio="xMidYMid meet">
<metadata>
Created by potrace 1.11, written by Peter Selinger 2001-2013
</metadata>
<g transform="translate(0.000000,1018.000000) scale(0.100000,-0.100000)"
fill="#000000" stroke="none">
<path d="M4675 10019 c-503 -43 -964 -143 -1400 -304 -38 -14 -101 -37 -139
-50 -38 -14 -74 -28 -80 -33 -6 -5 -51 -26 -101 -47 -89 -37 -341 -160 -360
-175 -5 -4 -37 -22 -70 -40 -156 -85 -469 -289 -580 -379 -38 -31 -88 -70
-110 -86 -40 -28 -61 -46 -191 -160 -258 -226 -574 -575 -756 -835 -431 -614
-692 -1222 -828 -1925 -54 -278 -60 -366 -60 -899 0 -582 9 -678 101 -1086 44
-195 154 -545 218 -695 5 -11 30 -69 56 -130 236 -552 600 -1084 1039 -1520
99 -99 235 -225 301 -280 66 -55 122 -102 125 -105 9 -10 235 -177 300 -222
183 -127 404 -255 635 -368 594 -291 1180 -453 1875 -518 41 -4 242 -7 445 -7
318 1 397 4 565 23 243 29 439 63 670 119 155 37 524 148 545 163 6 4 42 19
80 33 203 74 430 179 660 307 167 92 175 97 335 203 313 208 532 388 801 657
323 325 544 610 780 1008 33 57 84 150 125 232 293 579 455 1148 513 1806 11
129 12 665 0 774 -15 141 -40 342 -49 390 -5 25 -14 77 -21 115 -20 116 -78
351 -125 506 -155 513 -414 1030 -731 1459 -62 84 -138 182 -149 194 -6 7 -33
39 -59 71 -27 33 -69 83 -94 110 -80 89 -413 415 -486 475 -168 141 -500 385
-590 434 -39 21 -63 36 -100 62 -74 51 -375 206 -575 297 -492 222 -1110 377
-1682 422 -208 16 -663 18 -833 4z"/>
</g>
</svg>
